<svg width="275" height="155" viewBox="0 0 275 155" fill="none" xmlns="http://www.w3.org/2000/svg">
<path d="M97.44 65V31.12H84.364V23.56H119.616V31.12H106.568V65H97.44ZM124.902 65.532C122.867 65.532 121.056 65.14 119.47 64.356C117.883 63.5533 116.632 62.2747 115.718 60.52C114.803 58.7653 114.346 56.4413 114.346 53.548V34.368H123.278V52.932C123.278 54.78 123.66 56.0587 124.426 56.768C125.21 57.4773 126.227 57.832 127.478 57.832C128.094 57.832 128.738 57.748 129.41 57.58C130.1 57.3933 130.754 57.1133 131.37 56.74C131.986 56.3667 132.527 55.9 132.994 55.34V34.368H141.898V65H134.562L133.946 61.92H133.554C132.396 63.096 131.08 63.992 129.606 64.608C128.131 65.224 126.563 65.532 124.902 65.532ZM157.687 65.56C153.991 65.56 151.144 64.6453 149.147 62.816C147.168 60.968 146.179 58.0467 146.179 54.052V34.368L147.803 23.56H155.083V52.652C155.083 54.7613 155.475 56.2173 156.259 57.02C157.061 57.8227 158.349 58.224 160.123 58.224C160.608 58.224 161.103 58.196 161.607 58.14C162.129 58.0653 162.708 57.972 163.343 57.86V64.916C162.54 65.084 161.635 65.2333 160.627 65.364C159.637 65.4947 158.657 65.56 157.687 65.56ZM141.195 41.396V34.368H163.147V41.396H141.195ZM175.872 65.588C172.81 65.588 170.16 65.0093 167.92 63.852C165.698 62.676 163.981 60.9213 162.768 58.588C161.554 56.236 160.948 53.296 160.948 49.768C160.948 46.2027 161.536 43.244 162.712 40.892C163.906 38.54 165.614 36.7853 167.836 35.628C170.076 34.4707 172.754 33.892 175.872 33.892C178.989 33.892 181.658 34.48 183.88 35.656C186.12 36.8133 187.828 38.568 189.004 40.92C190.198 43.2533 190.796 46.184 190.796 49.712C190.796 53.2587 190.189 56.208 188.976 58.56C187.762 60.912 186.036 62.676 183.796 63.852C181.574 65.0093 178.933 65.588 175.872 65.588ZM175.872 58.812C177.122 58.812 178.186 58.5413 179.064 58C179.96 57.4587 180.641 56.5347 181.108 55.228C181.574 53.9027 181.808 52.092 181.808 49.796C181.808 47.444 181.574 45.6053 181.108 44.28C180.641 42.9547 179.96 42.0213 179.064 41.48C178.186 40.92 177.122 40.64 175.872 40.64C174.621 40.64 173.548 40.9107 172.652 41.452C171.774 41.9933 171.102 42.9267 170.636 44.252C170.169 45.5587 169.936 47.3693 169.936 49.684C169.936 52.036 170.169 53.8747 170.636 55.2C171.102 56.5253 171.774 57.4587 172.652 58C173.548 58.5413 174.621 58.812 175.872 58.812ZM191.035 65V34.368H198.343L199.015 38.316H199.463C200.322 36.804 201.46 35.7027 202.879 35.012C204.298 34.3027 205.856 33.948 207.555 33.948C208.022 33.948 208.47 33.9667 208.899 34.004C209.328 34.0413 209.711 34.0973 210.047 34.172V42.236C209.58 42.1427 209.076 42.0867 208.535 42.068C208.012 42.0307 207.508 42.012 207.023 42.012C206.146 42.012 205.259 42.124 204.363 42.348C203.467 42.5533 202.636 42.88 201.871 43.328C201.106 43.7573 200.462 44.2893 199.939 44.924V65H191.035Z" fill="#3E4F7E"/>
<path d="M44.868 113.532C40.9293 113.532 37.4947 112.767 34.564 111.236C31.652 109.705 29.384 107.372 27.76 104.236C26.1547 101.081 25.352 97.096 25.352 92.28C25.352 87.464 26.1547 83.488 27.76 80.352C29.384 77.1973 31.652 74.8547 34.564 73.324C37.4947 71.7933 40.9293 71.028 44.868 71.028C48.8067 71.028 52.232 71.8027 55.144 73.352C58.0747 74.8827 60.3427 77.2253 61.948 80.38C63.572 83.516 64.384 87.4827 64.384 92.28C64.384 97.0773 63.572 101.053 61.948 104.208C60.3427 107.344 58.0747 109.687 55.144 111.236C52.2133 112.767 48.788 113.532 44.868 113.532ZM44.868 106.196C46.996 106.196 48.816 105.739 50.328 104.824C51.8587 103.891 53.0253 102.416 53.828 100.4C54.6493 98.384 55.06 95.7427 55.06 92.476C55.06 89.0787 54.6493 86.3533 53.828 84.3C53.0067 82.228 51.8307 80.7253 50.3 79.792C48.788 78.84 46.9773 78.364 44.868 78.364C42.7587 78.364 40.9387 78.8213 39.408 79.736C37.896 80.6507 36.7293 82.116 35.908 84.132C35.0867 86.148 34.676 88.7987 34.676 92.084C34.676 95.5 35.0773 98.244 35.88 100.316C36.7013 102.369 37.868 103.863 39.38 104.796C40.9107 105.729 42.74 106.196 44.868 106.196ZM65.082 113V82.368H72.446L73.034 85.476H73.454C74.5927 84.3187 75.9273 83.432 77.458 82.816C78.9887 82.2 80.65 81.892 82.442 81.892C84.458 81.892 86.25 82.2933 87.818 83.096C89.4047 83.88 90.646 85.1587 91.542 86.932C92.438 88.6867 92.886 91.0107 92.886 93.904V113H83.954V94.464C83.954 92.616 83.5713 91.3373 82.806 90.628C82.0407 89.9187 80.986 89.564 79.642 89.564C78.97 89.564 78.2887 89.6573 77.598 89.844C76.926 90.012 76.2727 90.2827 75.638 90.656C75.022 91.0293 74.4713 91.496 73.986 92.056V113H65.082ZM106.104 113.56C104.144 113.56 102.128 113.42 100.056 113.14C98.003 112.86 96.0897 112.431 94.3164 111.852V67.752H103.22V85.364H103.668C104.564 84.2627 105.675 83.4133 107 82.816C108.326 82.2 109.856 81.892 111.592 81.892C113.72 81.892 115.69 82.4147 117.5 83.46C119.311 84.5053 120.758 86.148 121.84 88.388C122.923 90.628 123.464 93.5213 123.464 97.068C123.464 102.463 122.027 106.56 119.152 109.36C116.296 112.16 111.947 113.56 106.104 113.56ZM106.888 106.812C109.408 106.812 111.303 106.121 112.572 104.74C113.86 103.34 114.504 101.016 114.504 97.768C114.504 95.5467 114.234 93.82 113.692 92.588C113.17 91.3373 112.432 90.46 111.48 89.956C110.547 89.452 109.455 89.2 108.204 89.2C107.308 89.2 106.422 89.3493 105.544 89.648C104.667 89.928 103.892 90.3853 103.22 91.02V106.364C103.724 106.495 104.284 106.607 104.9 106.7C105.535 106.775 106.198 106.812 106.888 106.812ZM137.786 113.588C134.724 113.588 132.074 113.009 129.834 111.852C127.612 110.676 125.895 108.921 124.682 106.588C123.468 104.236 122.862 101.296 122.862 97.768C122.862 94.2027 123.45 91.244 124.626 88.892C125.82 86.54 127.528 84.7853 129.75 83.628C131.99 82.4707 134.668 81.892 137.786 81.892C140.903 81.892 143.572 82.48 145.794 83.656C148.034 84.8133 149.742 86.568 150.918 88.92C152.112 91.2533 152.71 94.184 152.71 97.712C152.71 101.259 152.103 104.208 150.89 106.56C149.676 108.912 147.95 110.676 145.71 111.852C143.488 113.009 140.847 113.588 137.786 113.588ZM137.786 106.812C139.036 106.812 140.1 106.541 140.978 106C141.874 105.459 142.555 104.535 143.022 103.228C143.488 101.903 143.722 100.092 143.722 97.796C143.722 95.444 143.488 93.6053 143.022 92.28C142.555 90.9547 141.874 90.0213 140.978 89.48C140.1 88.92 139.036 88.64 137.786 88.64C136.535 88.64 135.462 88.9107 134.566 89.452C133.688 89.9933 133.016 90.9267 132.55 92.252C132.083 93.5587 131.85 95.3693 131.85 97.684C131.85 100.036 132.083 101.875 132.55 103.2C133.016 104.525 133.688 105.459 134.566 106C135.462 106.541 136.535 106.812 137.786 106.812ZM161.321 113.56C158.185 113.56 155.74 112.748 153.985 111.124C152.249 109.481 151.381 107.344 151.381 104.712C151.381 101.819 152.38 99.56 154.377 97.936C156.393 96.312 159.641 95.3507 164.121 95.052L170.561 94.52L171.513 99.448L165.017 99.98C163.3 100.111 162.059 100.503 161.293 101.156C160.547 101.809 160.173 102.705 160.173 103.844C160.173 104.964 160.519 105.832 161.209 106.448C161.9 107.045 162.908 107.344 164.233 107.344C165.055 107.344 165.895 107.204 166.753 106.924C167.612 106.625 168.396 106.121 169.105 105.412V94.212C169.105 92.812 168.872 91.7107 168.405 90.908C167.957 90.1053 167.22 89.536 166.193 89.2C165.185 88.8453 163.832 88.668 162.133 88.668C160.957 88.668 159.623 88.7707 158.129 88.976C156.636 89.1627 155.208 89.4707 153.845 89.9V83.18C155.339 82.7507 156.972 82.4333 158.745 82.228C160.537 82.004 162.199 81.892 163.729 81.892C166.977 81.892 169.637 82.2933 171.709 83.096C173.8 83.8987 175.34 85.2427 176.329 87.128C177.319 88.9947 177.813 91.5427 177.813 94.772V113H170.477L169.861 109.948H169.441C168.527 111.199 167.36 112.113 165.941 112.692C164.523 113.271 162.983 113.56 161.321 113.56ZM179.23 113V82.368H186.538L187.21 86.316H187.658C188.517 84.804 189.656 83.7027 191.074 83.012C192.493 82.3027 194.052 81.948 195.75 81.948C196.217 81.948 196.665 81.9667 197.094 82.004C197.524 82.0413 197.906 82.0973 198.242 82.172V90.236C197.776 90.1427 197.272 90.0867 196.73 90.068C196.208 90.0307 195.704 90.012 195.218 90.012C194.341 90.012 193.454 90.124 192.558 90.348C191.662 90.5533 190.832 90.88 190.066 91.328C189.301 91.7573 188.657 92.2893 188.134 92.924V113H179.23ZM207.824 113.532C205.566 113.532 203.475 113.019 201.552 111.992C199.648 110.965 198.118 109.332 196.96 107.092C195.822 104.852 195.252 101.931 195.252 98.328C195.252 94.7627 195.887 91.7573 197.156 89.312C198.426 86.8667 200.292 85.0187 202.756 83.768C205.239 82.4987 208.31 81.864 211.968 81.864C212.584 81.864 213.191 81.892 213.788 81.948C214.404 81.9853 214.974 82.032 215.496 82.088V67.752H224.428V113H216.924L216.392 109.78H215.972C215.095 110.9 213.966 111.805 212.584 112.496C211.222 113.187 209.635 113.532 207.824 113.532ZM210.456 106.252C211.371 106.252 212.276 106.084 213.172 105.748C214.087 105.412 214.862 104.889 215.496 104.18V89.004C215.011 88.892 214.451 88.808 213.816 88.752C213.182 88.6773 212.556 88.64 211.94 88.64C209.383 88.64 207.46 89.3307 206.172 90.712C204.884 92.0747 204.24 94.38 204.24 97.628C204.24 99.8493 204.502 101.585 205.024 102.836C205.547 104.087 206.266 104.973 207.18 105.496C208.114 106 209.206 106.252 210.456 106.252ZM241.533 113.588C237.688 113.588 234.524 113.037 232.041 111.936C229.559 110.835 227.711 109.108 226.497 106.756C225.303 104.404 224.705 101.371 224.705 97.656C224.705 94.2773 225.256 91.412 226.357 89.06C227.477 86.708 229.092 84.9253 231.201 83.712C233.329 82.4987 235.905 81.892 238.929 81.892C241.823 81.892 244.259 82.508 246.237 83.74C248.216 84.9533 249.709 86.7547 250.717 89.144C251.725 91.5333 252.229 94.464 252.229 97.936V100.26H229.801V95.136H245.341L243.913 95.668C243.913 93.652 243.727 92.0467 243.353 90.852C242.98 89.6573 242.411 88.808 241.645 88.304C240.899 87.8 239.965 87.548 238.845 87.548C237.707 87.548 236.745 87.8 235.961 88.304C235.196 88.808 234.608 89.6573 234.197 90.852C233.805 92.028 233.609 93.624 233.609 95.64V99.224C233.609 101.109 233.88 102.612 234.421 103.732C234.981 104.833 235.924 105.627 237.249 106.112C238.593 106.597 240.441 106.84 242.793 106.84C243.988 106.84 245.239 106.756 246.545 106.588C247.871 106.401 249.196 106.159 250.521 105.86V112.552C248.897 112.925 247.348 113.187 245.873 113.336C244.417 113.504 242.971 113.588 241.533 113.588ZM252.168 113V82.368H259.476L260.148 86.316H260.596C261.455 84.804 262.593 83.7027 264.012 83.012C265.431 82.3027 266.989 81.948 268.688 81.948C269.155 81.948 269.603 81.9667 270.032 82.004C270.461 82.0413 270.844 82.0973 271.18 82.172V90.236C270.713 90.1427 270.209 90.0867 269.668 90.068C269.145 90.0307 268.641 90.012 268.156 90.012C267.279 90.012 266.392 90.124 265.496 90.348C264.6 90.5533 263.769 90.88 263.004 91.328C262.239 91.7573 261.595 92.2893 261.072 92.924V113H252.168Z" fill="#3E4F7E"/>
<path d="M211 9V0H275V65H266V9H211Z" fill="#3E4F7E"/>
<path d="M64 146V155H0V90H9V146H64Z" fill="#3E4F7E"/>
</svg>
